<svg xmlns="http://www.w3.org/2000/svg" viewBox="0 0 64 64" fill="none">
  <rect x="4" y="14" width="56" height="36" rx="6" fill="#0f172a" stroke="#a855f7" stroke-width="2"/>
  <rect x="10" y="20" width="6" height="6" rx="1" fill="#a855f7"/>
  <rect x="18" y="20" width="6" height="6" rx="1" fill="#22d3ee"/>
  <rect x="26" y="20" width="6" height="6" rx="1" fill="#a855f7"/>
  <rect x="34" y="20" width="6" height="6" rx="1" fill="#a855f7"/>
  <rect x="42" y="20" width="6" height="6" rx="1" fill="#22d3ee"/>
  <rect x="50" y="20" width="4" height="6" rx="1" fill="#a855f7"/>
  <rect x="10" y="28" width="6" height="6" rx="1" fill="#a855f7"/>
  <rect x="18" y="28" width="6" height="6" rx="1" fill="#a855f7"/>
  <rect x="26" y="28" width="6" height="6" rx="1" fill="#22d3ee"/>
  <rect x="34" y="28" width="6" height="6" rx="1" fill="#a855f7"/>
  <rect x="42" y="28" width="6" height="6" rx="1" fill="#a855f7"/>
  <rect x="50" y="28" width="4" height="6" rx="1" fill="#a855f7"/>
  <rect x="10" y="36" width="22" height="8" rx="1" fill="#22d3ee"/>
  <rect x="34" y="36" width="20" height="8" rx="1" fill="#a855f7"/>
</svg>
